<?xml version="1.0" encoding="UTF-8"?>
<svg width="29px" height="29px" viewBox="0 0 29 29" version="1.1" xmlns="http://www.w3.org/2000/svg" xmlns:xlink="http://www.w3.org/1999/xlink">
    <title>Group</title>
    <g id="Page-1" stroke="none" stroke-width="1" fill="none" fill-rule="evenodd">
        <g id="To-Edward_UI_20191205_with-title-and-number" transform="translate(-1931.000000, -2018.000000)" fill="#23140E" fill-rule="nonzero" stroke="#23140E">
            <g id="Group" transform="translate(1932.000000, 2019.000000)">
                <path d="M18.78,5.71 L11.03,13.46 L9.53,17.83 C10.99,17.33 12.44,16.83 13.9,16.33 L21.65,8.58 C20.69,7.62 19.74,6.67 18.78,5.71 M26.45,5.88 C21.2,11.13 19.95,12.38 14.71,17.62 C13.11,18.17 11.51,18.72 9.9,19.27 C8.75,19.67 7.75,18.66 8.07,17.5 L9.73,12.65 C15.33,7.05 16.9,5.48 21.48,0.9 C22.13,0.25 23.19,0.25 23.84,0.9 L26.46,3.52 C27.1,4.17 27.1,5.24 26.45,5.88 Z M23.12,7.11 L25.4,4.83 C25.47,4.76 25.47,4.65 25.4,4.58 L22.78,1.96 C22.71,1.89 22.6,1.89 22.53,1.96 L20.25,4.25 L23.12,7.11 Z" id="Shape"></path>
                <path d="M2.29,3.15 L12.32,3.15 L12.32,5.05 L2.33,5.05 L2.33,25.04 L22.32,25.04 L22.32,15.05 L24.22,15.05 L24.22,25.08 C24.22,25.33 24.17,25.57 24.08,25.79 C23.99,26.02 23.85,26.22 23.68,26.39 C23.51,26.56 23.3,26.7 23.08,26.79 C22.86,26.88 22.62,26.93 22.37,26.93 L2.3,26.93 C2.05,26.93 1.81,26.88 1.59,26.79 C1.36,26.7 1.16,26.56 0.99,26.39 C0.82,26.22 0.68,26.01 0.59,25.79 C0.5,25.57 0.45,25.33 0.45,25.08 L0.45,5.01 C0.45,4.76 0.5,4.52 0.59,4.3 C0.68,4.07 0.82,3.87 0.99,3.7 C1.16,3.53 1.37,3.39 1.59,3.3 C1.8,3.2 2.04,3.15 2.29,3.15" id="Path"></path>
            </g>
        </g>
    </g>
</svg>