<?xml version="1.0" encoding="UTF-8"?>
<svg width="51px" height="68px" viewBox="0 0 51 68" version="1.1" xmlns="http://www.w3.org/2000/svg" xmlns:xlink="http://www.w3.org/1999/xlink">
    <title>Group 2</title>
    <g id="Page-1" stroke="none" stroke-width="1" fill="none" fill-rule="evenodd">
        <g id="To-Edward_UI_20191205_with-title-and-number" transform="translate(-5424.000000, -3226.000000)" fill="#FFDC15" fill-rule="nonzero">
            <g id="Music_-_Orange" transform="translate(5020.000000, 2573.000000)">
                <g id="Group-2" transform="translate(404.060000, 653.660000)">
                    <path d="M24.57,66.01 C24.25,66.01 23.93,65.9 23.68,65.69 C22.71,64.9 -3.41060513e-13,46.19 -3.41060513e-13,24.58 C-3.41060513e-13,11.03 11.03,4.54747351e-13 24.58,4.54747351e-13 C38.13,4.54747351e-13 49.16,11.03 49.16,24.58 C49.16,46.19 26.44,64.9 25.48,65.69 C25.21,65.9 24.9,66.01 24.57,66.01 Z M24.57,2.84 C12.58,2.84 2.82,12.6 2.82,24.59 C2.82,41.9 19.11,57.85 24.1,62.33 C24.23,62.45 24.4,62.51 24.56,62.51 C24.72,62.51 24.89,62.45 25.02,62.33 C30.01,57.85 46.3100077,41.89 46.3100077,24.59 C46.32,12.6 36.56,2.84 24.57,2.84 Z" id="Shape"></path>
                    <circle id="Oval" cx="24.57" cy="24.59" r="14.45"></circle>
                </g>
            </g>
        </g>
    </g>
</svg>