<?xml version="1.0" encoding="UTF-8"?>
<svg width="38px" height="34px" viewBox="0 0 38 34" version="1.1" xmlns="http://www.w3.org/2000/svg" xmlns:xlink="http://www.w3.org/1999/xlink">
    <title>Group</title>
    <g id="Page-1" stroke="none" stroke-width="1" fill="none" fill-rule="evenodd">
        <g id="To-Edward_UI_20191205_with-title-and-number" transform="translate(-1932.000000, -2191.000000)" fill="#23140E">
            <g id="Group" transform="translate(1932.000000, 2191.000000)">
                <path d="M34.74,7.12 C35.6,7.12 36.47,7.14 37.33,7.11 C37.75,7.09 37.8400163,7.24 37.8400163,7.64 C37.8400163,9 37.86,9 36.5,9 C35.02,9 33.54,9.01 32.07,8.99 C31.67,8.98 31.54,9.09 31.55,9.51 C31.57,11.26 31.55,13 31.57,14.75 C31.57,15.15 31.46,15.2700154 31.05,15.2700154 C29.68,15.2700154 29.68,15.29 29.68,13.89 C29.68,12.43 29.67,10.97 29.69,9.52 C29.7,9.12 29.58,8.99 29.17,9 C27.44,9.02 25.72,8.99 24,9.02 C23.53,9.03 23.42,8.88 23.43,8.43 C23.45,7.13 23.43,7.13 24.7,7.13 C26.14,7.13 27.58,7.11 29.01,7.14 C29.53,7.15 29.72,7.06 29.7,6.48 C29.65,4.78 29.69,3.07 29.68,1.37 C29.68,0.98 29.78,0.839984568 30.2,0.839984568 C31.58,0.839984568 31.58,0.82 31.58,2.22 C31.58,3.68 31.6,5.14 31.57,6.59 C31.56,7.03 31.7,7.15 32.12,7.13 C32.97,7.09 33.86,7.12 34.74,7.12 Z" id="Path"></path>
                <path d="M19.11,20.44 C18.36,19.59 17.47,18.89 16.6,18.17 C16.11,17.77 15.6,17.37 15.21,16.86 C14.66,16.15 14.67,15.56 15.23,14.85 C15.58,14.41 16,14.05 16.45,13.72 C18.67,12.08 19.63,9.92 19.41,7.15 C19.26,5.17 18.92,3.38 16.77,2.45 C17.24,2.1 17.66,2.1 18.06,2.04 C18.85,1.91 19.66,1.89 20.4,1.55 C20.65,1.43 20.94,1.27 20.87,0.98 C20.8,0.71 20.48,0.85 20.27,0.85 C17.72,0.84 15.17,0.86 12.63,0.84 C11.39,0.83 10.17,1.01 8.98,1.34 C4.26,2.65 2.02,6.17 2.98,10.77 C3.23,11.97 3.76,13.02 4.67,13.85 C6.02,15.1 7.68,15.54 9.47,15.67 C9.89,15.7 10.46,15.46 10.69,15.79 C10.89,16.09 10.78,16.63 10.75,17.05 C10.7,17.63 10.84,18.09 11.36,18.42 C11.64,18.6 11.78,18.91 11.88,19.24 C11.98,19.57 11.94,19.71 11.54,19.71 C10.88,19.71 10.23,19.75 9.57,19.82 C7.68,20.01 5.83,20.38 4.14,21.29 C2.69,22.06 1.58,23.14 1.12,24.77 C0.23,27.89 1.69,30.8 4.82,32.11 C6.85,32.96 8.99,33.19 11.16,33.08 C13.46,32.96 15.69,32.5 17.66,31.23 C21.37,28.8 22.05,23.76 19.11,20.44 Z M9.46,13.02 C7.57,11.56 6.84,9.52 6.74,7.55 C6.74,6.22 6.91,5.28 7.37,4.4 C8.4,2.42 10.46,1.88 12.31,3.13 C13.98,4.26 14.8,5.92 15.16,7.85 C15.4,9.13 15.31,10.39 14.8,11.6 C13.82,13.93 11.47,14.58 9.46,13.02 Z M16.64,28.73 C14.12,31.22 9.28,31.57 6.43,29.48 C4.11,27.78 3.92,25.07 6.01,23.08 C7.57,21.6 9.5,21.07 11.5,21.01 C13.28,21.04 14.85,21.42 16.22,22.45 C18.44,24.12 18.61,26.78 16.64,28.73 Z" id="Shape"></path>
            </g>
        </g>
    </g>
</svg>