<?xml version="1.0" encoding="UTF-8"?>
<svg width="394px" height="196px" viewBox="0 0 394 196" version="1.1" xmlns="http://www.w3.org/2000/svg" xmlns:xlink="http://www.w3.org/1999/xlink">
    <title>Group</title>
    <g id="Page-1" stroke="none" stroke-width="1" fill="none" fill-rule="evenodd">
        <g id="To-Edward_UI_20191205_with-title-and-number" transform="translate(-98.000000, -1182.000000)" fill="#FFDC15" fill-rule="nonzero">
            <g id="Group" transform="translate(98.000000, 1182.000000)">
                <path d="M195.45,194.88 C159.67,194.88 137.34,168.29 137.34,120.58 L137.34,13.58 C137.34,7.31 142.88,2.23 149.72,2.23 L149.72,2.23 C160.21,2.23 169.36,9.08 169.36,29.37 L169.36,119.76 C169.36,150.74 179.85,163.35 198.95,163.35 C217.78,163.35 225.58,151.29 225.58,121.68 L225.58,13.58 C225.58,7.31 231.12,2.23 237.96,2.23 L237.96,2.23 C249.8,2.23 257.6,9.36 257.6,28.28 L257.6,120.86 C257.6,168.56 236.61,194.88 195.45,194.88 Z" id="Path"></path>
                <path d="M38.47,160.82 L85.67,79.1 C91.53,67.37 93.59,43.92 69.25,36.88 C54.59,32.78 38.76,45.38 38.76,63.85 C38.76,73.96 44.58,82.24 52.7,86.16 C66.19,92.68 64.15,112.49 49.46,115.45 C36.54,118.05 21.02,113.73 9.74,96.68 C-5.21,73.81 -2.57,40.69 19.41,18.99 C65.44,-26.74 143.12,18.7 124.36,81.73 C120.57,95.1 83.13,153.42 66.22,186 C61.26,195.57 48.08,197.45 41.02,189.32 C34.71,182.04 33.37,171.38 38.47,160.82 Z" id="Path"></path>
                <path d="M292.31,193.4 C282.2,198.5 270.24,191.06 270.03,179.74 C269.36,143.42 267.64,65.17 270.14,51.76 C281.15,-12.07 369.59,-18.19 390.2,42.3 C400.11,71.06 387.95,101.45 364.76,115.09 C347.93,124.87 332.81,122.42 322.55,115.06 C310.43,106.37 316.54,86.86 331.46,87.01 C340.34,87.1 349.09,82.34 353.52,73.42 C361.6,57.12 353.14,39.07 338.41,36.28 C313.86,31.85 305.41,53.44 305.46,66.35 L305.57,170.04 C305.45,180.94 300.25,189.4 292.31,193.4 Z" id="Path"></path>
            </g>
        </g>
    </g>
</svg>